%TF.GenerationSoftware,KiCad,Pcbnew,9.0.7-1.fc43*%
%TF.CreationDate,2026-02-05T16:04:44+08:00*%
%TF.ProjectId,C64-Kick-UP-The-Butt,4336342d-4b69-4636-9b2d-55502d546865,1.0*%
%TF.SameCoordinates,Original*%
%TF.FileFunction,Soldermask,Top*%
%TF.FilePolarity,Negative*%
%FSLAX46Y46*%
G04 Gerber Fmt 4.6, Leading zero omitted, Abs format (unit mm)*
G04 Created by KiCad (PCBNEW 9.0.7-1.fc43) date 2026-02-05 16:04:44*
%MOMM*%
%LPD*%
G01*
G04 APERTURE LIST*
%ADD10C,0.100000*%
%ADD11O,2.410000X8.760000*%
%ADD12R,2.410000X8.300000*%
%ADD13C,2.000000*%
G04 APERTURE END LIST*
%TO.C,CN2*%
D10*
X71375000Y-68580000D02*
X124080000Y-68580000D01*
X124080000Y-80010000D01*
X71375000Y-80010000D01*
X71375000Y-68580000D01*
G36*
X71375000Y-68580000D02*
G01*
X124080000Y-68580000D01*
X124080000Y-80010000D01*
X71375000Y-80010000D01*
X71375000Y-68580000D01*
G37*
%TO.C,CN1*%
X124080000Y-53340000D02*
X71375000Y-53340000D01*
X71375000Y-41910000D01*
X124080000Y-41910000D01*
X124080000Y-53340000D01*
G36*
X124080000Y-53340000D02*
G01*
X71375000Y-53340000D01*
X71375000Y-41910000D01*
X124080000Y-41910000D01*
X124080000Y-53340000D01*
G37*
%TD*%
D11*
%TO.C,CN2*%
X119380000Y-73660000D03*
X115420000Y-73660000D03*
X111460000Y-73660000D03*
X107500000Y-73660000D03*
X103540000Y-73660000D03*
X99580000Y-73660000D03*
X95620000Y-73660000D03*
X91660000Y-73660000D03*
X87700000Y-73660000D03*
X83740000Y-73660000D03*
X79780000Y-73660000D03*
D12*
X75820000Y-73469500D03*
D11*
X115420000Y-73660000D03*
X111460000Y-73660000D03*
X107500000Y-73660000D03*
X103540000Y-73660000D03*
X99580000Y-73660000D03*
X95620000Y-73660000D03*
X91660000Y-73660000D03*
X87700000Y-73660000D03*
X83740000Y-73660000D03*
X79780000Y-73660000D03*
X75820000Y-73660000D03*
%TD*%
D13*
%TO.C,SW1*%
X95477500Y-64771000D03*
X95477500Y-58271000D03*
X99977500Y-64771000D03*
X99977500Y-58271000D03*
%TD*%
D11*
%TO.C,CN1*%
X119380000Y-48260000D03*
X115420000Y-48260000D03*
X111460000Y-48260000D03*
X107500000Y-48260000D03*
X103540000Y-48260000D03*
X99580000Y-48260000D03*
X95620000Y-48260000D03*
X91660000Y-48260000D03*
X87700000Y-48260000D03*
X83740000Y-48260000D03*
X79780000Y-48260000D03*
D12*
X75820000Y-48450500D03*
D11*
X115420000Y-48260000D03*
X111460000Y-48260000D03*
X107500000Y-48260000D03*
X103540000Y-48260000D03*
X99580000Y-48260000D03*
X95620000Y-48260000D03*
X91660000Y-48260000D03*
X87700000Y-48260000D03*
X83740000Y-48260000D03*
X79780000Y-48260000D03*
X75820000Y-48260000D03*
%TD*%
M02*
