%TF.GenerationSoftware,KiCad,Pcbnew,9.0.7-1.fc43*%
%TF.CreationDate,2026-02-05T16:04:44+08:00*%
%TF.ProjectId,C64-Kick-UP-The-Butt,4336342d-4b69-4636-9b2d-55502d546865,1.0*%
%TF.SameCoordinates,Original*%
%TF.FileFunction,Profile,NP*%
%FSLAX46Y46*%
G04 Gerber Fmt 4.6, Leading zero omitted, Abs format (unit mm)*
G04 Created by KiCad (PCBNEW 9.0.7-1.fc43) date 2026-02-05 16:04:44*
%MOMM*%
%LPD*%
G01*
G04 APERTURE LIST*
%TA.AperFunction,Profile*%
%ADD10C,0.050000*%
%TD*%
G04 APERTURE END LIST*
D10*
X80184358Y-43195265D02*
X81147490Y-44149336D01*
X115843306Y-43218162D02*
X116806438Y-44172233D01*
X121920000Y-63500000D02*
G75*
G02*
X116840000Y-63500000I-2540000J0D01*
G01*
X116840000Y-63500000D02*
G75*
G02*
X121920000Y-63500000I2540000J0D01*
G01*
X73209677Y-43195265D02*
X80184358Y-43195265D01*
X123108398Y-54999076D02*
X123108398Y-78740000D01*
X121920000Y-43241059D02*
X122145266Y-43241059D01*
X72259422Y-78740000D02*
X72259422Y-54930385D01*
X116806439Y-53362897D02*
X118081183Y-53362897D01*
X122145266Y-43241059D02*
X123108398Y-44195130D01*
X81147491Y-53340000D02*
X82422235Y-53340000D01*
X118081183Y-53362897D02*
X118081182Y-44172233D01*
X72259422Y-78740000D02*
X123108398Y-78740000D01*
X83372489Y-43218162D02*
X82422234Y-44149336D01*
X83372489Y-43218162D02*
X115843306Y-43218162D01*
X72259422Y-44126439D02*
X73209677Y-43195265D01*
X123108398Y-54999076D02*
X123108398Y-44195130D01*
X116806439Y-53362897D02*
X116806438Y-44172233D01*
X82422235Y-53340000D02*
X82422234Y-44149336D01*
X81147491Y-53340000D02*
X81147490Y-44149336D01*
X118081182Y-44172233D02*
X119031437Y-43241059D01*
X72259422Y-54930385D02*
X72259422Y-44126439D01*
X78740000Y-60960000D02*
G75*
G02*
X73660000Y-60960000I-2540000J0D01*
G01*
X73660000Y-60960000D02*
G75*
G02*
X78740000Y-60960000I2540000J0D01*
G01*
X119031437Y-43241059D02*
X121920000Y-43241059D01*
M02*
