%TF.GenerationSoftware,KiCad,Pcbnew,9.0.7-1.fc43*%
%TF.CreationDate,2026-02-05T16:04:50+08:00*%
%TF.ProjectId,C64-Kick-UP-The-Butt,4336342d-4b69-4636-9b2d-55502d546865,1.0*%
%TF.SameCoordinates,Original*%
%TF.FileFunction,Drillmap*%
%TF.FilePolarity,Positive*%
%FSLAX45Y45*%
G04 Gerber Fmt 4.5, Leading zero omitted, Abs format (unit mm)*
G04 Created by KiCad (PCBNEW 9.0.7-1.fc43) date 2026-02-05 16:04:50*
%MOMM*%
%LPD*%
G01*
G04 APERTURE LIST*
%ADD10C,0.050000*%
%ADD11C,0.200000*%
%ADD12C,0.100000*%
%ADD13C,0.110000*%
G04 APERTURE END LIST*
D10*
X8018436Y-4319527D02*
X8114749Y-4414934D01*
X11584331Y-4321816D02*
X11680644Y-4417223D01*
X12192000Y-6350000D02*
G75*
G02*
X11684000Y-6350000I-254000J0D01*
G01*
X11684000Y-6350000D02*
G75*
G02*
X12192000Y-6350000I254000J0D01*
G01*
X7320968Y-4319527D02*
X8018436Y-4319527D01*
X12310840Y-5499908D02*
X12310840Y-7874000D01*
X12192000Y-4324106D02*
X12214527Y-4324106D01*
X7225942Y-7874000D02*
X7225942Y-5493039D01*
X11680644Y-5336290D02*
X11808118Y-5336290D01*
X12214527Y-4324106D02*
X12310840Y-4419513D01*
X8114749Y-5334000D02*
X8242223Y-5334000D01*
X11808118Y-5336290D02*
X11808118Y-4417223D01*
X7225942Y-7874000D02*
X12310840Y-7874000D01*
X8337249Y-4321816D02*
X8242223Y-4414934D01*
X8337249Y-4321816D02*
X11584331Y-4321816D01*
X7225942Y-4412644D02*
X7320968Y-4319527D01*
X12310840Y-5499908D02*
X12310840Y-4419513D01*
X11680644Y-5336290D02*
X11680644Y-4417223D01*
X8242223Y-5334000D02*
X8242223Y-4414934D01*
X8114749Y-5334000D02*
X8114749Y-4414934D01*
X11808118Y-4417223D02*
X11903144Y-4324106D01*
X7225942Y-5493039D02*
X7225942Y-4412644D01*
X7874000Y-6096000D02*
G75*
G02*
X7366000Y-6096000I-254000J0D01*
G01*
X7366000Y-6096000D02*
G75*
G02*
X7874000Y-6096000I254000J0D01*
G01*
X11903144Y-4324106D02*
X12192000Y-4324106D01*
D11*
D12*
X7567000Y-6589000D02*
X7597000Y-6619000D01*
X7597000Y-6589000D02*
X7567000Y-6619000D01*
X7859000Y-5573000D02*
X7889000Y-5603000D01*
X7889000Y-5573000D02*
X7859000Y-5603000D01*
X7963000Y-5573000D02*
X7993000Y-5603000D01*
X7993000Y-5573000D02*
X7963000Y-5603000D01*
X8053000Y-6111000D02*
X8083000Y-6141000D01*
X8083000Y-6111000D02*
X8053000Y-6141000D01*
X8488080Y-5573000D02*
X8518080Y-5603000D01*
X8518080Y-5573000D02*
X8488080Y-5603000D01*
X8488080Y-6335000D02*
X8518080Y-6365000D01*
X8518080Y-6335000D02*
X8488080Y-6365000D01*
X8600190Y-5573000D02*
X8630190Y-5603000D01*
X8630190Y-5573000D02*
X8600190Y-5603000D01*
X8600190Y-6081000D02*
X8630190Y-6111000D01*
X8630190Y-6081000D02*
X8600190Y-6111000D01*
X9258490Y-5573000D02*
X9288490Y-5603000D01*
X9288490Y-5573000D02*
X9258490Y-5603000D01*
X9258490Y-6081000D02*
X9288490Y-6111000D01*
X9288490Y-6081000D02*
X9258490Y-6111000D01*
X9351468Y-6599677D02*
X9381468Y-6629677D01*
X9381468Y-6599677D02*
X9351468Y-6629677D01*
X9366560Y-5530220D02*
X9396560Y-5560220D01*
X9396560Y-5530220D02*
X9366560Y-5560220D01*
X10164700Y-5592700D02*
X10194700Y-5622700D01*
X10194700Y-5592700D02*
X10164700Y-5622700D01*
X10164700Y-6589000D02*
X10194700Y-6619000D01*
X10194700Y-6589000D02*
X10164700Y-6619000D01*
X10787459Y-5537859D02*
X10817459Y-5567859D01*
X10817459Y-5537859D02*
X10787459Y-5567859D01*
X10796419Y-6633101D02*
X10826419Y-6663101D01*
X10826419Y-6633101D02*
X10796419Y-6663101D01*
X11415000Y-5573000D02*
X11445000Y-5603000D01*
X11445000Y-5573000D02*
X11415000Y-5603000D01*
X11527000Y-6813000D02*
X11557000Y-6843000D01*
X11557000Y-6813000D02*
X11527000Y-6843000D01*
X11920410Y-5402480D02*
X11950410Y-5432480D01*
X11950410Y-5402480D02*
X11920410Y-5432480D01*
X11941964Y-6760240D02*
X11971964Y-6790240D01*
X11971964Y-6760240D02*
X11941964Y-6790240D01*
D13*
X9602750Y-5827100D02*
G75*
G02*
X9492750Y-5827100I-55000J0D01*
G01*
X9492750Y-5827100D02*
G75*
G02*
X9602750Y-5827100I55000J0D01*
G01*
X9602750Y-6477100D02*
G75*
G02*
X9492750Y-6477100I-55000J0D01*
G01*
X9492750Y-6477100D02*
G75*
G02*
X9602750Y-6477100I55000J0D01*
G01*
X10052750Y-5827100D02*
G75*
G02*
X9942750Y-5827100I-55000J0D01*
G01*
X9942750Y-5827100D02*
G75*
G02*
X10052750Y-5827100I55000J0D01*
G01*
X10052750Y-6477100D02*
G75*
G02*
X9942750Y-6477100I-55000J0D01*
G01*
X9942750Y-6477100D02*
G75*
G02*
X10052750Y-6477100I55000J0D01*
G01*
D11*
X7484219Y-8187984D02*
X7484219Y-7987984D01*
X7484219Y-7987984D02*
X7531838Y-7987984D01*
X7531838Y-7987984D02*
X7560409Y-7997508D01*
X7560409Y-7997508D02*
X7579457Y-8016555D01*
X7579457Y-8016555D02*
X7588981Y-8035603D01*
X7588981Y-8035603D02*
X7598505Y-8073698D01*
X7598505Y-8073698D02*
X7598505Y-8102269D01*
X7598505Y-8102269D02*
X7588981Y-8140365D01*
X7588981Y-8140365D02*
X7579457Y-8159412D01*
X7579457Y-8159412D02*
X7560409Y-8178460D01*
X7560409Y-8178460D02*
X7531838Y-8187984D01*
X7531838Y-8187984D02*
X7484219Y-8187984D01*
X7684219Y-8187984D02*
X7684219Y-8054650D01*
X7684219Y-8092746D02*
X7693743Y-8073698D01*
X7693743Y-8073698D02*
X7703267Y-8064174D01*
X7703267Y-8064174D02*
X7722314Y-8054650D01*
X7722314Y-8054650D02*
X7741362Y-8054650D01*
X7808028Y-8187984D02*
X7808028Y-8054650D01*
X7808028Y-7987984D02*
X7798505Y-7997508D01*
X7798505Y-7997508D02*
X7808028Y-8007031D01*
X7808028Y-8007031D02*
X7817552Y-7997508D01*
X7817552Y-7997508D02*
X7808028Y-7987984D01*
X7808028Y-7987984D02*
X7808028Y-8007031D01*
X7931838Y-8187984D02*
X7912790Y-8178460D01*
X7912790Y-8178460D02*
X7903267Y-8159412D01*
X7903267Y-8159412D02*
X7903267Y-7987984D01*
X8036600Y-8187984D02*
X8017552Y-8178460D01*
X8017552Y-8178460D02*
X8008028Y-8159412D01*
X8008028Y-8159412D02*
X8008028Y-7987984D01*
X8265171Y-8187984D02*
X8265171Y-7987984D01*
X8265171Y-7987984D02*
X8331838Y-8130841D01*
X8331838Y-8130841D02*
X8398505Y-7987984D01*
X8398505Y-7987984D02*
X8398505Y-8187984D01*
X8579457Y-8187984D02*
X8579457Y-8083222D01*
X8579457Y-8083222D02*
X8569933Y-8064174D01*
X8569933Y-8064174D02*
X8550886Y-8054650D01*
X8550886Y-8054650D02*
X8512790Y-8054650D01*
X8512790Y-8054650D02*
X8493743Y-8064174D01*
X8579457Y-8178460D02*
X8560410Y-8187984D01*
X8560410Y-8187984D02*
X8512790Y-8187984D01*
X8512790Y-8187984D02*
X8493743Y-8178460D01*
X8493743Y-8178460D02*
X8484219Y-8159412D01*
X8484219Y-8159412D02*
X8484219Y-8140365D01*
X8484219Y-8140365D02*
X8493743Y-8121317D01*
X8493743Y-8121317D02*
X8512790Y-8111793D01*
X8512790Y-8111793D02*
X8560410Y-8111793D01*
X8560410Y-8111793D02*
X8579457Y-8102269D01*
X8674695Y-8054650D02*
X8674695Y-8254650D01*
X8674695Y-8064174D02*
X8693743Y-8054650D01*
X8693743Y-8054650D02*
X8731838Y-8054650D01*
X8731838Y-8054650D02*
X8750886Y-8064174D01*
X8750886Y-8064174D02*
X8760410Y-8073698D01*
X8760410Y-8073698D02*
X8769933Y-8092746D01*
X8769933Y-8092746D02*
X8769933Y-8149888D01*
X8769933Y-8149888D02*
X8760410Y-8168936D01*
X8760410Y-8168936D02*
X8750886Y-8178460D01*
X8750886Y-8178460D02*
X8731838Y-8187984D01*
X8731838Y-8187984D02*
X8693743Y-8187984D01*
X8693743Y-8187984D02*
X8674695Y-8178460D01*
X8855648Y-8168936D02*
X8865171Y-8178460D01*
X8865171Y-8178460D02*
X8855648Y-8187984D01*
X8855648Y-8187984D02*
X8846124Y-8178460D01*
X8846124Y-8178460D02*
X8855648Y-8168936D01*
X8855648Y-8168936D02*
X8855648Y-8187984D01*
X8855648Y-8064174D02*
X8865171Y-8073698D01*
X8865171Y-8073698D02*
X8855648Y-8083222D01*
X8855648Y-8083222D02*
X8846124Y-8073698D01*
X8846124Y-8073698D02*
X8855648Y-8064174D01*
X8855648Y-8064174D02*
X8855648Y-8083222D01*
D12*
X7193442Y-8501500D02*
X7223442Y-8531500D01*
X7223442Y-8501500D02*
X7193442Y-8531500D01*
D11*
X7522314Y-8407984D02*
X7541362Y-8407984D01*
X7541362Y-8407984D02*
X7560409Y-8417508D01*
X7560409Y-8417508D02*
X7569933Y-8427031D01*
X7569933Y-8427031D02*
X7579457Y-8446079D01*
X7579457Y-8446079D02*
X7588981Y-8484174D01*
X7588981Y-8484174D02*
X7588981Y-8531793D01*
X7588981Y-8531793D02*
X7579457Y-8569889D01*
X7579457Y-8569889D02*
X7569933Y-8588936D01*
X7569933Y-8588936D02*
X7560409Y-8598460D01*
X7560409Y-8598460D02*
X7541362Y-8607984D01*
X7541362Y-8607984D02*
X7522314Y-8607984D01*
X7522314Y-8607984D02*
X7503267Y-8598460D01*
X7503267Y-8598460D02*
X7493743Y-8588936D01*
X7493743Y-8588936D02*
X7484219Y-8569889D01*
X7484219Y-8569889D02*
X7474695Y-8531793D01*
X7474695Y-8531793D02*
X7474695Y-8484174D01*
X7474695Y-8484174D02*
X7484219Y-8446079D01*
X7484219Y-8446079D02*
X7493743Y-8427031D01*
X7493743Y-8427031D02*
X7503267Y-8417508D01*
X7503267Y-8417508D02*
X7522314Y-8407984D01*
X7674695Y-8588936D02*
X7684219Y-8598460D01*
X7684219Y-8598460D02*
X7674695Y-8607984D01*
X7674695Y-8607984D02*
X7665171Y-8598460D01*
X7665171Y-8598460D02*
X7674695Y-8588936D01*
X7674695Y-8588936D02*
X7674695Y-8607984D01*
X7750886Y-8407984D02*
X7874695Y-8407984D01*
X7874695Y-8407984D02*
X7808028Y-8484174D01*
X7808028Y-8484174D02*
X7836600Y-8484174D01*
X7836600Y-8484174D02*
X7855648Y-8493698D01*
X7855648Y-8493698D02*
X7865171Y-8503222D01*
X7865171Y-8503222D02*
X7874695Y-8522270D01*
X7874695Y-8522270D02*
X7874695Y-8569889D01*
X7874695Y-8569889D02*
X7865171Y-8588936D01*
X7865171Y-8588936D02*
X7855648Y-8598460D01*
X7855648Y-8598460D02*
X7836600Y-8607984D01*
X7836600Y-8607984D02*
X7779457Y-8607984D01*
X7779457Y-8607984D02*
X7760409Y-8598460D01*
X7760409Y-8598460D02*
X7750886Y-8588936D01*
X7998505Y-8407984D02*
X8017552Y-8407984D01*
X8017552Y-8407984D02*
X8036600Y-8417508D01*
X8036600Y-8417508D02*
X8046124Y-8427031D01*
X8046124Y-8427031D02*
X8055648Y-8446079D01*
X8055648Y-8446079D02*
X8065171Y-8484174D01*
X8065171Y-8484174D02*
X8065171Y-8531793D01*
X8065171Y-8531793D02*
X8055648Y-8569889D01*
X8055648Y-8569889D02*
X8046124Y-8588936D01*
X8046124Y-8588936D02*
X8036600Y-8598460D01*
X8036600Y-8598460D02*
X8017552Y-8607984D01*
X8017552Y-8607984D02*
X7998505Y-8607984D01*
X7998505Y-8607984D02*
X7979457Y-8598460D01*
X7979457Y-8598460D02*
X7969933Y-8588936D01*
X7969933Y-8588936D02*
X7960409Y-8569889D01*
X7960409Y-8569889D02*
X7950886Y-8531793D01*
X7950886Y-8531793D02*
X7950886Y-8484174D01*
X7950886Y-8484174D02*
X7960409Y-8446079D01*
X7960409Y-8446079D02*
X7969933Y-8427031D01*
X7969933Y-8427031D02*
X7979457Y-8417508D01*
X7979457Y-8417508D02*
X7998505Y-8407984D01*
X8188981Y-8407984D02*
X8208029Y-8407984D01*
X8208029Y-8407984D02*
X8227076Y-8417508D01*
X8227076Y-8417508D02*
X8236600Y-8427031D01*
X8236600Y-8427031D02*
X8246124Y-8446079D01*
X8246124Y-8446079D02*
X8255648Y-8484174D01*
X8255648Y-8484174D02*
X8255648Y-8531793D01*
X8255648Y-8531793D02*
X8246124Y-8569889D01*
X8246124Y-8569889D02*
X8236600Y-8588936D01*
X8236600Y-8588936D02*
X8227076Y-8598460D01*
X8227076Y-8598460D02*
X8208029Y-8607984D01*
X8208029Y-8607984D02*
X8188981Y-8607984D01*
X8188981Y-8607984D02*
X8169933Y-8598460D01*
X8169933Y-8598460D02*
X8160409Y-8588936D01*
X8160409Y-8588936D02*
X8150886Y-8569889D01*
X8150886Y-8569889D02*
X8141362Y-8531793D01*
X8141362Y-8531793D02*
X8141362Y-8484174D01*
X8141362Y-8484174D02*
X8150886Y-8446079D01*
X8150886Y-8446079D02*
X8160409Y-8427031D01*
X8160409Y-8427031D02*
X8169933Y-8417508D01*
X8169933Y-8417508D02*
X8188981Y-8407984D01*
X8341362Y-8607984D02*
X8341362Y-8474650D01*
X8341362Y-8493698D02*
X8350886Y-8484174D01*
X8350886Y-8484174D02*
X8369933Y-8474650D01*
X8369933Y-8474650D02*
X8398505Y-8474650D01*
X8398505Y-8474650D02*
X8417552Y-8484174D01*
X8417552Y-8484174D02*
X8427076Y-8503222D01*
X8427076Y-8503222D02*
X8427076Y-8607984D01*
X8427076Y-8503222D02*
X8436600Y-8484174D01*
X8436600Y-8484174D02*
X8455648Y-8474650D01*
X8455648Y-8474650D02*
X8484219Y-8474650D01*
X8484219Y-8474650D02*
X8503267Y-8484174D01*
X8503267Y-8484174D02*
X8512791Y-8503222D01*
X8512791Y-8503222D02*
X8512791Y-8607984D01*
X8608029Y-8607984D02*
X8608029Y-8474650D01*
X8608029Y-8493698D02*
X8617552Y-8484174D01*
X8617552Y-8484174D02*
X8636600Y-8474650D01*
X8636600Y-8474650D02*
X8665172Y-8474650D01*
X8665172Y-8474650D02*
X8684219Y-8484174D01*
X8684219Y-8484174D02*
X8693743Y-8503222D01*
X8693743Y-8503222D02*
X8693743Y-8607984D01*
X8693743Y-8503222D02*
X8703267Y-8484174D01*
X8703267Y-8484174D02*
X8722314Y-8474650D01*
X8722314Y-8474650D02*
X8750886Y-8474650D01*
X8750886Y-8474650D02*
X8769933Y-8484174D01*
X8769933Y-8484174D02*
X8779457Y-8503222D01*
X8779457Y-8503222D02*
X8779457Y-8607984D01*
X9169933Y-8398460D02*
X8998505Y-8655603D01*
X9427076Y-8407984D02*
X9446124Y-8407984D01*
X9446124Y-8407984D02*
X9465172Y-8417508D01*
X9465172Y-8417508D02*
X9474695Y-8427031D01*
X9474695Y-8427031D02*
X9484219Y-8446079D01*
X9484219Y-8446079D02*
X9493743Y-8484174D01*
X9493743Y-8484174D02*
X9493743Y-8531793D01*
X9493743Y-8531793D02*
X9484219Y-8569889D01*
X9484219Y-8569889D02*
X9474695Y-8588936D01*
X9474695Y-8588936D02*
X9465172Y-8598460D01*
X9465172Y-8598460D02*
X9446124Y-8607984D01*
X9446124Y-8607984D02*
X9427076Y-8607984D01*
X9427076Y-8607984D02*
X9408029Y-8598460D01*
X9408029Y-8598460D02*
X9398505Y-8588936D01*
X9398505Y-8588936D02*
X9388981Y-8569889D01*
X9388981Y-8569889D02*
X9379457Y-8531793D01*
X9379457Y-8531793D02*
X9379457Y-8484174D01*
X9379457Y-8484174D02*
X9388981Y-8446079D01*
X9388981Y-8446079D02*
X9398505Y-8427031D01*
X9398505Y-8427031D02*
X9408029Y-8417508D01*
X9408029Y-8417508D02*
X9427076Y-8407984D01*
X9579457Y-8588936D02*
X9588981Y-8598460D01*
X9588981Y-8598460D02*
X9579457Y-8607984D01*
X9579457Y-8607984D02*
X9569934Y-8598460D01*
X9569934Y-8598460D02*
X9579457Y-8588936D01*
X9579457Y-8588936D02*
X9579457Y-8607984D01*
X9712791Y-8407984D02*
X9731838Y-8407984D01*
X9731838Y-8407984D02*
X9750886Y-8417508D01*
X9750886Y-8417508D02*
X9760410Y-8427031D01*
X9760410Y-8427031D02*
X9769934Y-8446079D01*
X9769934Y-8446079D02*
X9779457Y-8484174D01*
X9779457Y-8484174D02*
X9779457Y-8531793D01*
X9779457Y-8531793D02*
X9769934Y-8569889D01*
X9769934Y-8569889D02*
X9760410Y-8588936D01*
X9760410Y-8588936D02*
X9750886Y-8598460D01*
X9750886Y-8598460D02*
X9731838Y-8607984D01*
X9731838Y-8607984D02*
X9712791Y-8607984D01*
X9712791Y-8607984D02*
X9693743Y-8598460D01*
X9693743Y-8598460D02*
X9684219Y-8588936D01*
X9684219Y-8588936D02*
X9674695Y-8569889D01*
X9674695Y-8569889D02*
X9665172Y-8531793D01*
X9665172Y-8531793D02*
X9665172Y-8484174D01*
X9665172Y-8484174D02*
X9674695Y-8446079D01*
X9674695Y-8446079D02*
X9684219Y-8427031D01*
X9684219Y-8427031D02*
X9693743Y-8417508D01*
X9693743Y-8417508D02*
X9712791Y-8407984D01*
X9969934Y-8607984D02*
X9855648Y-8607984D01*
X9912791Y-8607984D02*
X9912791Y-8407984D01*
X9912791Y-8407984D02*
X9893743Y-8436555D01*
X9893743Y-8436555D02*
X9874695Y-8455603D01*
X9874695Y-8455603D02*
X9855648Y-8465127D01*
X10160410Y-8607984D02*
X10046124Y-8607984D01*
X10103267Y-8607984D02*
X10103267Y-8407984D01*
X10103267Y-8407984D02*
X10084219Y-8436555D01*
X10084219Y-8436555D02*
X10065172Y-8455603D01*
X10065172Y-8455603D02*
X10046124Y-8465127D01*
X10274695Y-8493698D02*
X10255648Y-8484174D01*
X10255648Y-8484174D02*
X10246124Y-8474650D01*
X10246124Y-8474650D02*
X10236600Y-8455603D01*
X10236600Y-8455603D02*
X10236600Y-8446079D01*
X10236600Y-8446079D02*
X10246124Y-8427031D01*
X10246124Y-8427031D02*
X10255648Y-8417508D01*
X10255648Y-8417508D02*
X10274695Y-8407984D01*
X10274695Y-8407984D02*
X10312791Y-8407984D01*
X10312791Y-8407984D02*
X10331838Y-8417508D01*
X10331838Y-8417508D02*
X10341362Y-8427031D01*
X10341362Y-8427031D02*
X10350886Y-8446079D01*
X10350886Y-8446079D02*
X10350886Y-8455603D01*
X10350886Y-8455603D02*
X10341362Y-8474650D01*
X10341362Y-8474650D02*
X10331838Y-8484174D01*
X10331838Y-8484174D02*
X10312791Y-8493698D01*
X10312791Y-8493698D02*
X10274695Y-8493698D01*
X10274695Y-8493698D02*
X10255648Y-8503222D01*
X10255648Y-8503222D02*
X10246124Y-8512746D01*
X10246124Y-8512746D02*
X10236600Y-8531793D01*
X10236600Y-8531793D02*
X10236600Y-8569889D01*
X10236600Y-8569889D02*
X10246124Y-8588936D01*
X10246124Y-8588936D02*
X10255648Y-8598460D01*
X10255648Y-8598460D02*
X10274695Y-8607984D01*
X10274695Y-8607984D02*
X10312791Y-8607984D01*
X10312791Y-8607984D02*
X10331838Y-8598460D01*
X10331838Y-8598460D02*
X10341362Y-8588936D01*
X10341362Y-8588936D02*
X10350886Y-8569889D01*
X10350886Y-8569889D02*
X10350886Y-8531793D01*
X10350886Y-8531793D02*
X10341362Y-8512746D01*
X10341362Y-8512746D02*
X10331838Y-8503222D01*
X10331838Y-8503222D02*
X10312791Y-8493698D01*
X10427076Y-8407984D02*
X10427076Y-8446079D01*
X10503267Y-8407984D02*
X10503267Y-8446079D01*
X10798505Y-8684174D02*
X10788981Y-8674650D01*
X10788981Y-8674650D02*
X10769934Y-8646079D01*
X10769934Y-8646079D02*
X10760410Y-8627031D01*
X10760410Y-8627031D02*
X10750886Y-8598460D01*
X10750886Y-8598460D02*
X10741362Y-8550841D01*
X10741362Y-8550841D02*
X10741362Y-8512746D01*
X10741362Y-8512746D02*
X10750886Y-8465127D01*
X10750886Y-8465127D02*
X10760410Y-8436555D01*
X10760410Y-8436555D02*
X10769934Y-8417508D01*
X10769934Y-8417508D02*
X10788981Y-8388936D01*
X10788981Y-8388936D02*
X10798505Y-8379412D01*
X10865172Y-8427031D02*
X10874696Y-8417508D01*
X10874696Y-8417508D02*
X10893743Y-8407984D01*
X10893743Y-8407984D02*
X10941362Y-8407984D01*
X10941362Y-8407984D02*
X10960410Y-8417508D01*
X10960410Y-8417508D02*
X10969934Y-8427031D01*
X10969934Y-8427031D02*
X10979457Y-8446079D01*
X10979457Y-8446079D02*
X10979457Y-8465127D01*
X10979457Y-8465127D02*
X10969934Y-8493698D01*
X10969934Y-8493698D02*
X10855648Y-8607984D01*
X10855648Y-8607984D02*
X10979457Y-8607984D01*
X11103267Y-8407984D02*
X11122315Y-8407984D01*
X11122315Y-8407984D02*
X11141362Y-8417508D01*
X11141362Y-8417508D02*
X11150886Y-8427031D01*
X11150886Y-8427031D02*
X11160410Y-8446079D01*
X11160410Y-8446079D02*
X11169934Y-8484174D01*
X11169934Y-8484174D02*
X11169934Y-8531793D01*
X11169934Y-8531793D02*
X11160410Y-8569889D01*
X11160410Y-8569889D02*
X11150886Y-8588936D01*
X11150886Y-8588936D02*
X11141362Y-8598460D01*
X11141362Y-8598460D02*
X11122315Y-8607984D01*
X11122315Y-8607984D02*
X11103267Y-8607984D01*
X11103267Y-8607984D02*
X11084219Y-8598460D01*
X11084219Y-8598460D02*
X11074696Y-8588936D01*
X11074696Y-8588936D02*
X11065172Y-8569889D01*
X11065172Y-8569889D02*
X11055648Y-8531793D01*
X11055648Y-8531793D02*
X11055648Y-8484174D01*
X11055648Y-8484174D02*
X11065172Y-8446079D01*
X11065172Y-8446079D02*
X11074696Y-8427031D01*
X11074696Y-8427031D02*
X11084219Y-8417508D01*
X11084219Y-8417508D02*
X11103267Y-8407984D01*
X11408029Y-8607984D02*
X11408029Y-8407984D01*
X11493743Y-8607984D02*
X11493743Y-8503222D01*
X11493743Y-8503222D02*
X11484219Y-8484174D01*
X11484219Y-8484174D02*
X11465172Y-8474650D01*
X11465172Y-8474650D02*
X11436600Y-8474650D01*
X11436600Y-8474650D02*
X11417553Y-8484174D01*
X11417553Y-8484174D02*
X11408029Y-8493698D01*
X11617553Y-8607984D02*
X11598505Y-8598460D01*
X11598505Y-8598460D02*
X11588981Y-8588936D01*
X11588981Y-8588936D02*
X11579457Y-8569889D01*
X11579457Y-8569889D02*
X11579457Y-8512746D01*
X11579457Y-8512746D02*
X11588981Y-8493698D01*
X11588981Y-8493698D02*
X11598505Y-8484174D01*
X11598505Y-8484174D02*
X11617553Y-8474650D01*
X11617553Y-8474650D02*
X11646124Y-8474650D01*
X11646124Y-8474650D02*
X11665172Y-8484174D01*
X11665172Y-8484174D02*
X11674696Y-8493698D01*
X11674696Y-8493698D02*
X11684219Y-8512746D01*
X11684219Y-8512746D02*
X11684219Y-8569889D01*
X11684219Y-8569889D02*
X11674696Y-8588936D01*
X11674696Y-8588936D02*
X11665172Y-8598460D01*
X11665172Y-8598460D02*
X11646124Y-8607984D01*
X11646124Y-8607984D02*
X11617553Y-8607984D01*
X11798505Y-8607984D02*
X11779457Y-8598460D01*
X11779457Y-8598460D02*
X11769934Y-8579412D01*
X11769934Y-8579412D02*
X11769934Y-8407984D01*
X11950886Y-8598460D02*
X11931838Y-8607984D01*
X11931838Y-8607984D02*
X11893743Y-8607984D01*
X11893743Y-8607984D02*
X11874696Y-8598460D01*
X11874696Y-8598460D02*
X11865172Y-8579412D01*
X11865172Y-8579412D02*
X11865172Y-8503222D01*
X11865172Y-8503222D02*
X11874696Y-8484174D01*
X11874696Y-8484174D02*
X11893743Y-8474650D01*
X11893743Y-8474650D02*
X11931838Y-8474650D01*
X11931838Y-8474650D02*
X11950886Y-8484174D01*
X11950886Y-8484174D02*
X11960410Y-8503222D01*
X11960410Y-8503222D02*
X11960410Y-8522270D01*
X11960410Y-8522270D02*
X11865172Y-8541317D01*
X12036600Y-8598460D02*
X12055648Y-8607984D01*
X12055648Y-8607984D02*
X12093743Y-8607984D01*
X12093743Y-8607984D02*
X12112791Y-8598460D01*
X12112791Y-8598460D02*
X12122315Y-8579412D01*
X12122315Y-8579412D02*
X12122315Y-8569889D01*
X12122315Y-8569889D02*
X12112791Y-8550841D01*
X12112791Y-8550841D02*
X12093743Y-8541317D01*
X12093743Y-8541317D02*
X12065172Y-8541317D01*
X12065172Y-8541317D02*
X12046124Y-8531793D01*
X12046124Y-8531793D02*
X12036600Y-8512746D01*
X12036600Y-8512746D02*
X12036600Y-8503222D01*
X12036600Y-8503222D02*
X12046124Y-8484174D01*
X12046124Y-8484174D02*
X12065172Y-8474650D01*
X12065172Y-8474650D02*
X12093743Y-8474650D01*
X12093743Y-8474650D02*
X12112791Y-8484174D01*
X12188981Y-8684174D02*
X12198505Y-8674650D01*
X12198505Y-8674650D02*
X12217553Y-8646079D01*
X12217553Y-8646079D02*
X12227077Y-8627031D01*
X12227077Y-8627031D02*
X12236600Y-8598460D01*
X12236600Y-8598460D02*
X12246124Y-8550841D01*
X12246124Y-8550841D02*
X12246124Y-8512746D01*
X12246124Y-8512746D02*
X12236600Y-8465127D01*
X12236600Y-8465127D02*
X12227077Y-8436555D01*
X12227077Y-8436555D02*
X12217553Y-8417508D01*
X12217553Y-8417508D02*
X12198505Y-8388936D01*
X12198505Y-8388936D02*
X12188981Y-8379412D01*
D13*
X7223442Y-8780500D02*
G75*
G02*
X7113442Y-8780500I-55000J0D01*
G01*
X7113442Y-8780500D02*
G75*
G02*
X7223442Y-8780500I55000J0D01*
G01*
D11*
X7588981Y-8871984D02*
X7474695Y-8871984D01*
X7531838Y-8871984D02*
X7531838Y-8671984D01*
X7531838Y-8671984D02*
X7512790Y-8700555D01*
X7512790Y-8700555D02*
X7493743Y-8719603D01*
X7493743Y-8719603D02*
X7474695Y-8729127D01*
X7674695Y-8852936D02*
X7684219Y-8862460D01*
X7684219Y-8862460D02*
X7674695Y-8871984D01*
X7674695Y-8871984D02*
X7665171Y-8862460D01*
X7665171Y-8862460D02*
X7674695Y-8852936D01*
X7674695Y-8852936D02*
X7674695Y-8871984D01*
X7874695Y-8871984D02*
X7760409Y-8871984D01*
X7817552Y-8871984D02*
X7817552Y-8671984D01*
X7817552Y-8671984D02*
X7798505Y-8700555D01*
X7798505Y-8700555D02*
X7779457Y-8719603D01*
X7779457Y-8719603D02*
X7760409Y-8729127D01*
X7998505Y-8671984D02*
X8017552Y-8671984D01*
X8017552Y-8671984D02*
X8036600Y-8681508D01*
X8036600Y-8681508D02*
X8046124Y-8691031D01*
X8046124Y-8691031D02*
X8055648Y-8710079D01*
X8055648Y-8710079D02*
X8065171Y-8748174D01*
X8065171Y-8748174D02*
X8065171Y-8795793D01*
X8065171Y-8795793D02*
X8055648Y-8833889D01*
X8055648Y-8833889D02*
X8046124Y-8852936D01*
X8046124Y-8852936D02*
X8036600Y-8862460D01*
X8036600Y-8862460D02*
X8017552Y-8871984D01*
X8017552Y-8871984D02*
X7998505Y-8871984D01*
X7998505Y-8871984D02*
X7979457Y-8862460D01*
X7979457Y-8862460D02*
X7969933Y-8852936D01*
X7969933Y-8852936D02*
X7960409Y-8833889D01*
X7960409Y-8833889D02*
X7950886Y-8795793D01*
X7950886Y-8795793D02*
X7950886Y-8748174D01*
X7950886Y-8748174D02*
X7960409Y-8710079D01*
X7960409Y-8710079D02*
X7969933Y-8691031D01*
X7969933Y-8691031D02*
X7979457Y-8681508D01*
X7979457Y-8681508D02*
X7998505Y-8671984D01*
X8188981Y-8671984D02*
X8208029Y-8671984D01*
X8208029Y-8671984D02*
X8227076Y-8681508D01*
X8227076Y-8681508D02*
X8236600Y-8691031D01*
X8236600Y-8691031D02*
X8246124Y-8710079D01*
X8246124Y-8710079D02*
X8255648Y-8748174D01*
X8255648Y-8748174D02*
X8255648Y-8795793D01*
X8255648Y-8795793D02*
X8246124Y-8833889D01*
X8246124Y-8833889D02*
X8236600Y-8852936D01*
X8236600Y-8852936D02*
X8227076Y-8862460D01*
X8227076Y-8862460D02*
X8208029Y-8871984D01*
X8208029Y-8871984D02*
X8188981Y-8871984D01*
X8188981Y-8871984D02*
X8169933Y-8862460D01*
X8169933Y-8862460D02*
X8160409Y-8852936D01*
X8160409Y-8852936D02*
X8150886Y-8833889D01*
X8150886Y-8833889D02*
X8141362Y-8795793D01*
X8141362Y-8795793D02*
X8141362Y-8748174D01*
X8141362Y-8748174D02*
X8150886Y-8710079D01*
X8150886Y-8710079D02*
X8160409Y-8691031D01*
X8160409Y-8691031D02*
X8169933Y-8681508D01*
X8169933Y-8681508D02*
X8188981Y-8671984D01*
X8341362Y-8871984D02*
X8341362Y-8738650D01*
X8341362Y-8757698D02*
X8350886Y-8748174D01*
X8350886Y-8748174D02*
X8369933Y-8738650D01*
X8369933Y-8738650D02*
X8398505Y-8738650D01*
X8398505Y-8738650D02*
X8417552Y-8748174D01*
X8417552Y-8748174D02*
X8427076Y-8767222D01*
X8427076Y-8767222D02*
X8427076Y-8871984D01*
X8427076Y-8767222D02*
X8436600Y-8748174D01*
X8436600Y-8748174D02*
X8455648Y-8738650D01*
X8455648Y-8738650D02*
X8484219Y-8738650D01*
X8484219Y-8738650D02*
X8503267Y-8748174D01*
X8503267Y-8748174D02*
X8512791Y-8767222D01*
X8512791Y-8767222D02*
X8512791Y-8871984D01*
X8608029Y-8871984D02*
X8608029Y-8738650D01*
X8608029Y-8757698D02*
X8617552Y-8748174D01*
X8617552Y-8748174D02*
X8636600Y-8738650D01*
X8636600Y-8738650D02*
X8665172Y-8738650D01*
X8665172Y-8738650D02*
X8684219Y-8748174D01*
X8684219Y-8748174D02*
X8693743Y-8767222D01*
X8693743Y-8767222D02*
X8693743Y-8871984D01*
X8693743Y-8767222D02*
X8703267Y-8748174D01*
X8703267Y-8748174D02*
X8722314Y-8738650D01*
X8722314Y-8738650D02*
X8750886Y-8738650D01*
X8750886Y-8738650D02*
X8769933Y-8748174D01*
X8769933Y-8748174D02*
X8779457Y-8767222D01*
X8779457Y-8767222D02*
X8779457Y-8871984D01*
X9169933Y-8662460D02*
X8998505Y-8919603D01*
X9427076Y-8671984D02*
X9446124Y-8671984D01*
X9446124Y-8671984D02*
X9465172Y-8681508D01*
X9465172Y-8681508D02*
X9474695Y-8691031D01*
X9474695Y-8691031D02*
X9484219Y-8710079D01*
X9484219Y-8710079D02*
X9493743Y-8748174D01*
X9493743Y-8748174D02*
X9493743Y-8795793D01*
X9493743Y-8795793D02*
X9484219Y-8833889D01*
X9484219Y-8833889D02*
X9474695Y-8852936D01*
X9474695Y-8852936D02*
X9465172Y-8862460D01*
X9465172Y-8862460D02*
X9446124Y-8871984D01*
X9446124Y-8871984D02*
X9427076Y-8871984D01*
X9427076Y-8871984D02*
X9408029Y-8862460D01*
X9408029Y-8862460D02*
X9398505Y-8852936D01*
X9398505Y-8852936D02*
X9388981Y-8833889D01*
X9388981Y-8833889D02*
X9379457Y-8795793D01*
X9379457Y-8795793D02*
X9379457Y-8748174D01*
X9379457Y-8748174D02*
X9388981Y-8710079D01*
X9388981Y-8710079D02*
X9398505Y-8691031D01*
X9398505Y-8691031D02*
X9408029Y-8681508D01*
X9408029Y-8681508D02*
X9427076Y-8671984D01*
X9579457Y-8852936D02*
X9588981Y-8862460D01*
X9588981Y-8862460D02*
X9579457Y-8871984D01*
X9579457Y-8871984D02*
X9569934Y-8862460D01*
X9569934Y-8862460D02*
X9579457Y-8852936D01*
X9579457Y-8852936D02*
X9579457Y-8871984D01*
X9712791Y-8671984D02*
X9731838Y-8671984D01*
X9731838Y-8671984D02*
X9750886Y-8681508D01*
X9750886Y-8681508D02*
X9760410Y-8691031D01*
X9760410Y-8691031D02*
X9769934Y-8710079D01*
X9769934Y-8710079D02*
X9779457Y-8748174D01*
X9779457Y-8748174D02*
X9779457Y-8795793D01*
X9779457Y-8795793D02*
X9769934Y-8833889D01*
X9769934Y-8833889D02*
X9760410Y-8852936D01*
X9760410Y-8852936D02*
X9750886Y-8862460D01*
X9750886Y-8862460D02*
X9731838Y-8871984D01*
X9731838Y-8871984D02*
X9712791Y-8871984D01*
X9712791Y-8871984D02*
X9693743Y-8862460D01*
X9693743Y-8862460D02*
X9684219Y-8852936D01*
X9684219Y-8852936D02*
X9674695Y-8833889D01*
X9674695Y-8833889D02*
X9665172Y-8795793D01*
X9665172Y-8795793D02*
X9665172Y-8748174D01*
X9665172Y-8748174D02*
X9674695Y-8710079D01*
X9674695Y-8710079D02*
X9684219Y-8691031D01*
X9684219Y-8691031D02*
X9693743Y-8681508D01*
X9693743Y-8681508D02*
X9712791Y-8671984D01*
X9950886Y-8738650D02*
X9950886Y-8871984D01*
X9903267Y-8662460D02*
X9855648Y-8805317D01*
X9855648Y-8805317D02*
X9979457Y-8805317D01*
X10036600Y-8671984D02*
X10160410Y-8671984D01*
X10160410Y-8671984D02*
X10093743Y-8748174D01*
X10093743Y-8748174D02*
X10122315Y-8748174D01*
X10122315Y-8748174D02*
X10141362Y-8757698D01*
X10141362Y-8757698D02*
X10150886Y-8767222D01*
X10150886Y-8767222D02*
X10160410Y-8786270D01*
X10160410Y-8786270D02*
X10160410Y-8833889D01*
X10160410Y-8833889D02*
X10150886Y-8852936D01*
X10150886Y-8852936D02*
X10141362Y-8862460D01*
X10141362Y-8862460D02*
X10122315Y-8871984D01*
X10122315Y-8871984D02*
X10065172Y-8871984D01*
X10065172Y-8871984D02*
X10046124Y-8862460D01*
X10046124Y-8862460D02*
X10036600Y-8852936D01*
X10227076Y-8671984D02*
X10350886Y-8671984D01*
X10350886Y-8671984D02*
X10284219Y-8748174D01*
X10284219Y-8748174D02*
X10312791Y-8748174D01*
X10312791Y-8748174D02*
X10331838Y-8757698D01*
X10331838Y-8757698D02*
X10341362Y-8767222D01*
X10341362Y-8767222D02*
X10350886Y-8786270D01*
X10350886Y-8786270D02*
X10350886Y-8833889D01*
X10350886Y-8833889D02*
X10341362Y-8852936D01*
X10341362Y-8852936D02*
X10331838Y-8862460D01*
X10331838Y-8862460D02*
X10312791Y-8871984D01*
X10312791Y-8871984D02*
X10255648Y-8871984D01*
X10255648Y-8871984D02*
X10236600Y-8862460D01*
X10236600Y-8862460D02*
X10227076Y-8852936D01*
X10427076Y-8671984D02*
X10427076Y-8710079D01*
X10503267Y-8671984D02*
X10503267Y-8710079D01*
X10798505Y-8948174D02*
X10788981Y-8938650D01*
X10788981Y-8938650D02*
X10769934Y-8910079D01*
X10769934Y-8910079D02*
X10760410Y-8891031D01*
X10760410Y-8891031D02*
X10750886Y-8862460D01*
X10750886Y-8862460D02*
X10741362Y-8814841D01*
X10741362Y-8814841D02*
X10741362Y-8776746D01*
X10741362Y-8776746D02*
X10750886Y-8729127D01*
X10750886Y-8729127D02*
X10760410Y-8700555D01*
X10760410Y-8700555D02*
X10769934Y-8681508D01*
X10769934Y-8681508D02*
X10788981Y-8652936D01*
X10788981Y-8652936D02*
X10798505Y-8643412D01*
X10960410Y-8738650D02*
X10960410Y-8871984D01*
X10912791Y-8662460D02*
X10865172Y-8805317D01*
X10865172Y-8805317D02*
X10988981Y-8805317D01*
X11217553Y-8871984D02*
X11217553Y-8671984D01*
X11303267Y-8871984D02*
X11303267Y-8767222D01*
X11303267Y-8767222D02*
X11293743Y-8748174D01*
X11293743Y-8748174D02*
X11274696Y-8738650D01*
X11274696Y-8738650D02*
X11246124Y-8738650D01*
X11246124Y-8738650D02*
X11227076Y-8748174D01*
X11227076Y-8748174D02*
X11217553Y-8757698D01*
X11427076Y-8871984D02*
X11408029Y-8862460D01*
X11408029Y-8862460D02*
X11398505Y-8852936D01*
X11398505Y-8852936D02*
X11388981Y-8833889D01*
X11388981Y-8833889D02*
X11388981Y-8776746D01*
X11388981Y-8776746D02*
X11398505Y-8757698D01*
X11398505Y-8757698D02*
X11408029Y-8748174D01*
X11408029Y-8748174D02*
X11427076Y-8738650D01*
X11427076Y-8738650D02*
X11455648Y-8738650D01*
X11455648Y-8738650D02*
X11474696Y-8748174D01*
X11474696Y-8748174D02*
X11484219Y-8757698D01*
X11484219Y-8757698D02*
X11493743Y-8776746D01*
X11493743Y-8776746D02*
X11493743Y-8833889D01*
X11493743Y-8833889D02*
X11484219Y-8852936D01*
X11484219Y-8852936D02*
X11474696Y-8862460D01*
X11474696Y-8862460D02*
X11455648Y-8871984D01*
X11455648Y-8871984D02*
X11427076Y-8871984D01*
X11608029Y-8871984D02*
X11588981Y-8862460D01*
X11588981Y-8862460D02*
X11579457Y-8843412D01*
X11579457Y-8843412D02*
X11579457Y-8671984D01*
X11760410Y-8862460D02*
X11741362Y-8871984D01*
X11741362Y-8871984D02*
X11703267Y-8871984D01*
X11703267Y-8871984D02*
X11684219Y-8862460D01*
X11684219Y-8862460D02*
X11674696Y-8843412D01*
X11674696Y-8843412D02*
X11674696Y-8767222D01*
X11674696Y-8767222D02*
X11684219Y-8748174D01*
X11684219Y-8748174D02*
X11703267Y-8738650D01*
X11703267Y-8738650D02*
X11741362Y-8738650D01*
X11741362Y-8738650D02*
X11760410Y-8748174D01*
X11760410Y-8748174D02*
X11769934Y-8767222D01*
X11769934Y-8767222D02*
X11769934Y-8786270D01*
X11769934Y-8786270D02*
X11674696Y-8805317D01*
X11846124Y-8862460D02*
X11865172Y-8871984D01*
X11865172Y-8871984D02*
X11903267Y-8871984D01*
X11903267Y-8871984D02*
X11922315Y-8862460D01*
X11922315Y-8862460D02*
X11931838Y-8843412D01*
X11931838Y-8843412D02*
X11931838Y-8833889D01*
X11931838Y-8833889D02*
X11922315Y-8814841D01*
X11922315Y-8814841D02*
X11903267Y-8805317D01*
X11903267Y-8805317D02*
X11874696Y-8805317D01*
X11874696Y-8805317D02*
X11855648Y-8795793D01*
X11855648Y-8795793D02*
X11846124Y-8776746D01*
X11846124Y-8776746D02*
X11846124Y-8767222D01*
X11846124Y-8767222D02*
X11855648Y-8748174D01*
X11855648Y-8748174D02*
X11874696Y-8738650D01*
X11874696Y-8738650D02*
X11903267Y-8738650D01*
X11903267Y-8738650D02*
X11922315Y-8748174D01*
X11998505Y-8948174D02*
X12008029Y-8938650D01*
X12008029Y-8938650D02*
X12027077Y-8910079D01*
X12027077Y-8910079D02*
X12036600Y-8891031D01*
X12036600Y-8891031D02*
X12046124Y-8862460D01*
X12046124Y-8862460D02*
X12055648Y-8814841D01*
X12055648Y-8814841D02*
X12055648Y-8776746D01*
X12055648Y-8776746D02*
X12046124Y-8729127D01*
X12046124Y-8729127D02*
X12036600Y-8700555D01*
X12036600Y-8700555D02*
X12027077Y-8681508D01*
X12027077Y-8681508D02*
X12008029Y-8652936D01*
X12008029Y-8652936D02*
X11998505Y-8643412D01*
M02*
